<?xml version="1.0" encoding="utf-8"?>
<!-- Generator: Adobe Illustrator 20.1.0, SVG Export Plug-In . SVG Version: 6.00 Build 0)  -->
<svg version="1.1" id="Layer_1" xmlns="http://www.w3.org/2000/svg" xmlns:xlink="http://www.w3.org/1999/xlink" x="0px" y="0px"
	 viewBox="0 0 700 700" style="enable-background:new 0 0 700 700;" xml:space="preserve">
<style type="text/css">
	.st0{fill:#B77666;}
</style>
<g id="_x36_45860.tif">
	<g>
		<path class="st0" d="M40.9,367.6c1.6,10.5,2.8,21.1,4.7,31.5C57.3,461,87.1,512.7,134.5,554c39.3,34.3,85.1,55,136.6,63
			c13,2,26.3,2.4,39.9,3.6c0-26.4,0-51.7,0-77.5c-70.1-2.9-125.8-32.5-163.7-92.3c-25.8-40.7-34.3-85.6-26.3-133
			c16.3-97,101.9-166.2,199.9-161.1c106.1,5.5,168.5,88.8,179,154.1c-23.8,0-47.4,0-72.7,0c39,52,77.2,103,116,154.7
			c9.1-12,17.6-23.4,26.1-34.7c29-38.6,57.9-77.2,86.9-115.8c0.8-1.1,1.9-1.9,2.9-2.8c0-0.4,0-0.8,0-1.2c-25.1,0-50.3,0-75.4,0.1
			c-3.7,0-5.1-0.9-5.7-4.9c-7.3-45.3-24.4-86.7-53.3-122.3C459.1,102.9,374,68.7,270.9,82.3c-57.2,7.5-106.7,33.1-148,73.5
			c-40.7,39.7-66.6,87.6-77.1,143.6c-2,10.6-3.2,21.4-4.8,32.1C40.9,343.5,40.9,355.6,40.9,367.6z"/>
		<path class="st0" d="M195.6,349.4c0,13.3,0,25.5,0,38.3c51.2,0,102.4,0,153.9,0c0-51,0-102.2,0-153.7c-12.5,0-24.9,0-37.9,0
			c0,38.2,0,76.5,0,115.4C272.8,349.4,234.5,349.4,195.6,349.4z"/>
	</g>
</g>
</svg>
