<?xml version="1.0" encoding="utf-8"?>
<!-- Generator: Adobe Illustrator 18.0.0, SVG Export Plug-In . SVG Version: 6.00 Build 0)  -->
<!DOCTYPE svg PUBLIC "-//W3C//DTD SVG 1.1//EN" "http://www.w3.org/Graphics/SVG/1.1/DTD/svg11.dtd">
<svg version="1.1" id="Camada_1" xmlns="http://www.w3.org/2000/svg" xmlns:xlink="http://www.w3.org/1999/xlink" x="0px" y="0px"
	 viewBox="0 180 612 612" enable-background="new 0 180 612 612" xml:space="preserve">
<path fill="#983923" d="M280.1,481.1v-97.9c0,0,28,25.2,55.9,25.2h153.8v-58.7l109,109L489.8,565v-58.7H336.1C308.1,506.3,280.1,481.1,280.1,481.1z
	 M301.1,254.7c79.7,0,146.8,53.1,167.7,125.8h-60.1c-18.2-40.5-60.1-69.9-107.6-69.9c-65.7,0-118.8,53.1-118.8,118.8
	s53.1,118.8,118.8,118.8c19.6,0,39.1-5.6,55.9-14h83.9c-32.2,41.9-82.5,69.9-139.8,69.9c-33.5,0-64.3-9.8-90.9-25.2L84.4,704.8
	c-16.8,16.8-43.3,16.8-58.7,0c-16.8-16.8-16.8-43.3,0-58.7l127.2-127.2c-15.4-26.6-25.2-57.3-25.2-90.9
	C126.4,332.9,204.7,254.7,301.1,254.7z"/>
</svg>
