<?xml version="1.0" encoding="utf-8"?>
<!-- Generator: Adobe Illustrator 20.1.0, SVG Export Plug-In . SVG Version: 6.00 Build 0)  -->
<svg version="1.1" id="Layer_3" xmlns="http://www.w3.org/2000/svg" xmlns:xlink="http://www.w3.org/1999/xlink" x="0px" y="0px"
	 viewBox="0 0 512 512" style="enable-background:new 0 0 512 512;" xml:space="preserve">
<style type="text/css">
	.st0{fill:#9A3A22;}
</style>
<g>
	<path class="st0" d="M355.7,311.6H156.3V112.2h199.4V311.6z M178.9,289h154.1V134.9H178.9V289z"/>
	<g>
		<path class="st0" d="M175.2,399.8h-60v-60h60V399.8z M125.1,389.9h40.3v-40.3h-40.3V389.9z"/>
		<path class="st0" d="M249.1,399.8h-60v-60h60V399.8z M198.9,389.9h40.3v-40.3h-40.3V389.9z"/>
		<path class="st0" d="M322.9,399.8h-60v-60h60V399.8z M272.8,389.9h40.3v-40.3h-40.3V389.9z"/>
		<path class="st0" d="M396.8,399.8h-60v-60h60V399.8z M346.6,389.9h40.3v-40.3h-40.3V389.9z"/>
	</g>
</g>
</svg>
