<?xml version="1.0" encoding="utf-8"?>
<!-- Generator: Adobe Illustrator 20.1.0, SVG Export Plug-In . SVG Version: 6.00 Build 0)  -->
<svg version="1.1" id="Layer_3" xmlns="http://www.w3.org/2000/svg" xmlns:xlink="http://www.w3.org/1999/xlink" x="0px" y="0px"
	 viewBox="0 0 512 512" style="enable-background:new 0 0 512 512;" xml:space="preserve">
<style type="text/css">
	.st0{fill:#9A3A22;}
</style>
<g>
	<path class="st0" d="M355.7,311.6H156.3V112.2h199.4V311.6z M178.9,289H333V134.9H178.9V289z"/>
	<g>
		<path class="st0" d="M175.2,399.8h-60v-60h60V399.8z M125.1,389.9h40.3v-40.3h-40.3C125.1,349.6,125.1,389.9,125.1,389.9z"/>
		<path class="st0" d="M249.1,399.8h-60v-60h60V399.8z M198.9,389.9h40.3v-40.3h-40.3V389.9z"/>
		<path class="st0" d="M322.9,399.8h-60v-60h60V399.8z M272.8,389.9h40.3v-40.3h-40.3V389.9z"/>
		<path class="st0" d="M396.8,399.8h-60v-60h60V399.8z M346.6,389.9h40.3v-40.3h-40.3V389.9z"/>
	</g>
</g>
<g>
	<path class="st0" d="M33.8,83.9c0.9-0.8,2-0.8,3.1-0.8c4.5,0.1,9.1,0.3,13.6,0.2c10.1-0.4,18-4.9,23.8-13.1c2.5-3.5,4.6-7.3,7-10.9
		c0.1-0.2,0.3-0.5,0.4-0.7c0.7-1.1,1.6-1.6,2.8-1.2c1.3,0.4,1.7,1.3,1.6,2.6c-0.1,4.9-0.4,9.8-0.1,14.7c0.4,8.4,3.6,15.6,10.1,21
		c2.6,2.2,5.4,4.1,8.1,6c1.9,1.3,4,2.4,6,3.6c1.4,0.8,2,1.8,1.7,3c-0.4,1.2-1.3,1.7-3,1.6c-3.8-0.1-7.5-0.3-11.3-0.3
		c-11.9,0-21.2,5-27.7,14.9c-1.9,3-3.8,6-5.6,9.1c-0.7,1.2-1.5,2.2-3,2.4c-0.3-0.1-0.5-0.2-0.8-0.2c-1.1-0.9-1.3-2-1.3-3.5
		c0.2-4.3,0.3-8.5,0.2-12.8C59.3,109.2,55,101,46.6,95c-3.4-2.4-7.1-4.6-10.7-6.8c-1.1-0.7-2.3-1.2-2.6-2.7
		C33.5,84.9,33.7,84.4,33.8,83.9z"/>
	<path class="st0" d="M124.8,185c-0.7,0.2-1.3,0.4-2,0.5c-0.3,0.1-0.5,0-0.8,0c-7.4-0.6-12.8,2.5-16.4,8.9c-0.1,0.2-0.2,0.4-0.3,0.6
		c-0.5,0.9-1.1,1.5-2.1,1.2c-1.1-0.3-1.1-1.2-1.1-2.2c0.1-3.1,0.1-6.1-1.1-9c-1.4-3.6-4.3-5.8-7.4-7.8c-0.5-0.3-1.1-0.5-1.5-0.9
		c-0.4-0.5-0.8-1.3-0.7-1.7c0.2-0.5,1-1.1,1.6-1.1c1.5-0.2,3,0,4.4-0.1c4.9-0.1,8.7-2.3,11.5-6.2c0.8-1.1,1.4-2.4,2.3-3.5
		c0.4-0.5,1.3-0.8,1.9-0.8c0.9,0,1.1,0.9,1.1,1.7c0,1.5,0,3.1,0,4.6c0.2,4.6,2.3,8.3,6,11c1,0.7,2.1,1.4,3.1,2.1
		c0.6,0.5,1.2,1.1,1.7,1.6C125.1,184.1,124.9,184.6,124.8,185z"/>
	<path class="st0" d="M173,57c-0.7,0.2-1.4,0.7-2,0.7c-2.1,0-4.1-0.1-6.2-0.2c-8.6-0.2-15,3.5-19.4,10.7c-0.9,1.5-1.9,3.1-2.8,4.6
		c-0.5,0.8-1,1.6-2.1,1.3c-1.2-0.3-1.2-1.3-1.2-2.3c0.1-2.6,0.2-5.3,0.1-7.9c-0.2-7.1-3.5-12.5-9.3-16.4c-1.9-1.3-3.9-2.5-5.9-3.7
		c-0.9-0.5-1.5-1.1-1.2-2.1c0.3-1,1.2-1.1,2.2-1.1c2.3,0.1,4.6,0.2,6.9,0.2c7.6,0,13.5-3.2,17.7-9.6c1.2-1.9,2.4-3.8,3.5-5.7
		c0.5-0.9,1.1-1.6,2.2-1.3c1,0.4,1.1,1.3,1,2.2c-0.1,2.2-0.2,4.4-0.2,6.6c0,7.7,3.1,13.6,9.5,17.9c2,1.3,4.1,2.5,6,3.8
		c0.6,0.4,0.9,1.1,1.3,1.7C173.1,56.6,173,56.8,173,57z"/>
</g>
</svg>
